<?xml version="1.0" encoding="UTF-8"?>
<svg width="13px" height="14px" viewBox="0 0 13 14" version="1.1" xmlns="http://www.w3.org/2000/svg" xmlns:xlink="http://www.w3.org/1999/xlink">
    <title>ic_copy</title>
    <g id="页面-2" stroke="none" stroke-width="1" fill="none" fill-rule="evenodd">
        <g id="01-4用户助手" transform="translate(-37, -650)" fill="#606062" fill-rule="nonzero">
            <g id="助手回答" transform="translate(20, 439)">
                <g id="复制/赞/踩" transform="translate(17.8117, 207)">
                    <g id="ic_copy" transform="translate(0, 4.1062)">
                        <path d="M6.81001394,3.890625 L8.12592937,5.246875 L8.12592937,12.69375 L1.06122212,12.69375 L1.06122212,3.890625 L6.81001394,3.890625 M7.2496631,2.796875 L0.90052277,2.796875 C0.403264405,2.796875 0,3.2109375 0,3.7234375 L0,12.859375 C0,13.1046875 0.0955099907,13.340625 0.263789498,13.515625 C0.432069006,13.690625 0.660989777,13.7875 0.90052277,13.7875 L8.28966078,13.7875 C8.52767774,13.7875 8.75659851,13.6890625 8.92487802,13.515625 C9.09315753,13.3421875 9.18715149,13.10625 9.18715149,12.859375 L9.18715149,4.79375 L7.2496631,2.796875 Z" id="形状"></path>
                        <path d="M9.96335967,0 L3.61421933,0 C3.11696097,0 2.71369656,0.4140625 2.71369656,0.9265625 L2.71369656,2.4890625 L3.77491868,2.4890625 L3.77491868,1.09375 L9.5237105,1.09375 L10.8396259,2.45 L10.8396259,9.896875 L9.53887082,9.896875 L9.53887082,10.990625 L11.0033573,10.990625 C11.2413743,10.990625 11.4702951,10.8921875 11.6385746,10.71875 C11.8068541,10.5453125 11.900848,10.309375 11.900848,10.0625 L11.900848,1.996875 L9.96335967,0 Z" id="路径"></path>
                    </g>
                </g>
            </g>
        </g>
    </g>
</svg>