<?xml version="1.0" encoding="UTF-8"?>
<svg width="16px" height="16px" viewBox="0 0 16 16" version="1.1" xmlns="http://www.w3.org/2000/svg" xmlns:xlink="http://www.w3.org/1999/xlink">
    <title>ic_step on</title>
    <g id="页面-2" stroke="none" stroke-width="1" fill="none" fill-rule="evenodd">
        <g id="01-4用户助手" transform="translate(-149, -650)">
            <g id="助手回答" transform="translate(20, 439)">
                <g id="复制/赞/踩" transform="translate(17.8117, 207)">
                    <g id="踩" transform="translate(111.2367, 0)">
                        <g id="ic_step-on" transform="translate(0, 4)">
                            <path d="M0,0 L15.5241636,0 L15.5241636,16 L0,16 Z" id="thumb-up-(Background)"></path>
                            <path d="M12.8260872,9.77099609 C13.4573112,9.77099609 13.9204726,9.15960646 13.7673787,8.52845955 L12.3119865,2.52845967 C12.2040053,2.08329213 11.8159173,1.77099609 11.3706959,1.77099609 L2.91078061,1.77099609 C2.37492072,1.77099609 1.94052045,2.21871197 1.94052045,2.77099609 L1.94052045,7.77099609 C1.94052045,8.32328081 2.37492124,8.77099609 2.91078113,8.77099609 L4.85130158,8.77099609 L6.79182249,13.7709961 L8.73234293,13.7709961 C9.26820283,13.7709961 9.7026032,13.3232799 9.70260316,12.7709961 L9.70260316,9.77099609 L12.8260872,9.77099609 Z M5.82156134,2.77099609 L11.3706959,2.77099609 L12.8260881,8.77099609 L8.73234247,8.77099609 L8.73234293,12.7709961 L7.44872063,12.7709961 L5.8215618,8.57841301 L5.82156134,2.77099609 Z M2.91078113,7.77099609 L2.91078067,2.77099609 L4.85130112,2.77099609 L4.85130158,7.77099609 L2.91078113,7.77099609 Z" id="thumb-up" fill="#000000"></path>
                        </g>
                    </g>
                </g>
            </g>
        </g>
    </g>
</svg>